# Apple ModelIO OBJ File: KylaRamp3
mtllib KylaRamp3.mtl
g shapr3d_export_2022-08-06_22h45m_Default_OBJ
v 0 20 30
v 0 20 3e-06
v 0 17 3e-06
v 0 17 30
v 30 -5e-06 30
v 30 0 0
v 21 3 0
v 21 0 0
v 21 2.99999 30
v 21 -5e-06 30
vn -1 -0 -0
vn 0.5547 0.8321 0
vn -0 0 -1
vn -0 -0 1
vn -0 -1 -0
vn -0.5547 -0.8321 -0
vt 0 0
vt 0.428665 0
vt 0.428665 0.023778
vt 0 0.023778
vt 0.85733 0
vt 0.85733 0.515192
vt 0.428665 0.515192
vt 0.928665 0
vt 0.928665 0.515192
vt 0.892999 0.384413
vt 0.857331 0.408191
vt 0.892999 0.023778
vt 1 0.515192
vt 0.964334 0.491413
vt 0.964334 0.130779
vt 1 0
vt 0.928666 0.107002
vt 0 0.408191
vt 0.428665 0.408191
vt 0 0.515192
vt 0 0.384413
vt 0.428665 0.384413
usemtl Default_OBJ
f 1/1/1 2/2/1 3/3/1
f 3/3/1 4/4/1 1/1/1
f 5/2/2 6/5/2 2/6/2
f 2/6/2 1/7/2 5/2/2
f 2/8/3 6/9/3 7/10/3
f 6/9/3 8/11/3 7/10/3
f 7/10/3 3/12/3 2/8/3
f 1/13/4 4/14/4 9/15/4
f 9/15/4 5/16/4 1/13/4
f 9/15/4 10/17/4 5/16/4
f 10/18/5 8/19/5 6/7/5
f 6/7/5 5/20/5 10/18/5
f 9/21/1 7/22/1 8/19/1
f 8/19/1 10/18/1 9/21/1
f 4/4/6 3/3/6 7/22/6
f 7/22/6 9/21/6 4/4/6
s off
